<svg width="97" height="32" viewBox="0 0 97 32" fill="none" xmlns="http://www.w3.org/2000/svg">
<path d="M0 31.615V11.5396H5.04485V13.0424C5.73223 12.4259 6.49325 11.9635 7.32793 11.6552C8.1626 11.3213 9.07092 11.1543 10.0529 11.1543C11.2803 11.1543 12.3851 11.424 13.367 11.9635C14.3735 12.4772 15.1959 13.2094 15.8342 14.1598C16.5952 13.1837 17.5158 12.4387 18.596 11.9249C19.6762 11.4112 20.8668 11.1543 22.1679 11.1543C24.3037 11.1543 26.0589 11.8993 27.4337 13.3892C28.8084 14.8791 29.4958 16.7929 29.4958 19.1305V31.615H24.451V19.9012C24.451 18.6424 24.1196 17.6277 23.4567 16.8571C22.8184 16.0864 21.947 15.7011 20.8422 15.7011C20.0812 15.7011 19.3816 15.8809 18.7433 16.2406C18.1296 16.5745 17.6018 17.0626 17.1599 17.7048C17.1844 17.936 17.209 18.1672 17.2335 18.3984C17.2581 18.6296 17.2703 18.8736 17.2703 19.1305V31.615H12.2255V19.9012C12.2255 18.6424 11.8941 17.6277 11.2312 16.8571C10.593 16.0864 9.72147 15.7011 8.61676 15.7011C7.85573 15.7011 7.18063 15.8553 6.59145 16.1635C6.00227 16.4718 5.48674 16.9213 5.04485 17.5121V31.615H0Z" fill="#FAF2E0"/>
<path d="M32.4878 21.5966C32.4878 20.1324 32.7455 18.7709 33.261 17.5121C33.8011 16.2277 34.5253 15.1231 35.4337 14.1984C36.3665 13.2479 37.459 12.5029 38.711 11.9635C39.963 11.424 41.3009 11.1543 42.7248 11.1543C44.1486 11.1543 45.4865 11.424 46.7385 11.9635C47.9906 12.5029 49.0707 13.2479 49.979 14.1984C50.9119 15.1231 51.6361 16.2277 52.1516 17.5121C52.6917 18.7709 52.9618 20.1324 52.9618 21.5966C52.9618 23.0608 52.6917 24.4351 52.1516 25.7196C51.6361 26.9783 50.9119 28.07 49.979 28.9948C49.0707 29.9196 47.9906 30.6517 46.7385 31.1912C45.4865 31.7306 44.1486 32.0003 42.7248 32.0003C41.3009 32.0003 39.963 31.7306 38.711 31.1912C37.459 30.6517 36.3665 29.9196 35.4337 28.9948C34.5253 28.07 33.8011 26.9783 33.261 25.7196C32.7455 24.4351 32.4878 23.0608 32.4878 21.5966ZM42.7248 27.415C44.1977 27.415 45.4497 26.8498 46.4808 25.7196C47.5118 24.5893 48.0274 23.2149 48.0274 21.5966C48.0274 19.9525 47.5118 18.5654 46.4808 17.4351C45.4497 16.3048 44.1977 15.7397 42.7248 15.7397C41.2518 15.7397 39.9998 16.3048 38.9687 17.4351C37.9377 18.5654 37.4221 19.9525 37.4221 21.5966C37.4221 23.2149 37.9377 24.5893 38.9687 25.7196C39.9998 26.8498 41.2518 27.415 42.7248 27.415Z" fill="#FAF2E0"/>
<path d="M56.0627 31.615V11.5396H61.1076V13.0424C61.795 12.4259 62.556 11.9635 63.3906 11.6552C64.2253 11.3213 65.1336 11.1543 66.1156 11.1543C67.3431 11.1543 68.4478 11.424 69.4297 11.9635C70.4363 12.4772 71.2586 13.2094 71.8969 14.1598C72.658 13.1837 73.5785 12.4387 74.6587 11.9249C75.7389 11.4112 76.9295 11.1543 78.2306 11.1543C80.3664 11.1543 82.1217 11.8993 83.4964 13.3892C84.8712 14.8791 85.5585 16.7929 85.5585 19.1305V31.615H80.5137V19.9012C80.5137 18.6424 80.1823 17.6277 79.5194 16.8571C78.8812 16.0864 78.0097 15.7011 76.905 15.7011C76.1439 15.7011 75.4443 15.8809 74.806 16.2406C74.1923 16.5745 73.6645 17.0626 73.2226 17.7048C73.2471 17.936 73.2717 18.1672 73.2962 18.3984C73.3208 18.6296 73.3331 18.8736 73.3331 19.1305V31.615H68.2882V19.9012C68.2882 18.6424 67.9568 17.6277 67.294 16.8571C66.6557 16.0864 65.7842 15.7011 64.6795 15.7011C63.9185 15.7011 63.2434 15.8553 62.6542 16.1635C62.065 16.4718 61.5495 16.9213 61.1076 17.5121V31.615H56.0627Z" fill="#FAF2E0"/>
<path d="M94.4791 11.5396V31.615H89.4342V11.5396H94.4791Z" fill="#FAF2E0"/>
<path d="M93.2698 7.80908H89.5391V3.9052C89.5391 1.74928 91.2095 0.00131512 93.2698 0.00131512H97.0006V3.9052C97.0006 6.06112 95.3301 7.80908 93.2698 7.80908Z" fill="#FAF2E0"/>
<path opacity="0.5" d="M93.2698 7.80859H89.5391V3.90471C89.5391 1.74879 91.2095 0.000826836 93.2698 0.000826836H97.0006V3.90471C97.0006 6.06063 95.3301 7.80859 93.2698 7.80859Z" fill="#5D7A47"/>
</svg>
