<svg width="1440" height="780" viewBox="0 0 1440 780" fill="none" xmlns="http://www.w3.org/2000/svg">
<rect width="1439.99" height="780" fill="#FAF2E0"/>
<mask id="mask0" mask-type="alpha" maskUnits="userSpaceOnUse" x="0" y="0" width="1440" height="780">
<rect width="1440" height="780" fill="url(#paint0_radial)"/>
</mask>
<g mask="url(#mask0)">
<g opacity="0.8">
<path d="M961.524 -602.699C1124.92 -437.022 925.038 -208.607 1037.26 -2.06281C1137.65 182.682 1407.95 144.485 1431.58 354.627C1444.28 467.608 1383.43 752.376 1327 849C1208.8 1051.38 1085.59 804.431 889.536 924.552C707.321 1036.19 608.041 1202.59 395.966 1212.16C286.55 1217.1 218.25 1195.98 124.255 1136.32C-64.7177 1016.36 -58.3285 861.67 -170.65 663.098C-281.266 467.542 -401.833 366.747 -409.517 140.876C-413.381 27.2895 -434.451 -56.9245 -370.697 -148.433C-251.02 -320.21 -52.0354 -280.828 136.86 -404.692C330.663 -531.795 307.037 -689.434 541.719 -732.405C709.366 -763.102 838.707 -727.233 961.524 -602.699Z" stroke="#FEFEFE" stroke-width="1.5" stroke-miterlimit="10"/>
<path d="M698.525 -564.936C886.966 -428.421 727.422 -170.214 872.124 15.0332C1001.55 180.729 1261.88 98.5486 1319.79 301.933C1350.92 411.28 1337.69 730.651 1274.5 823C1138 1022.5 1052.58 802.564 878.975 953.325C717.628 1093.44 647.099 1273.92 439.494 1318.27C332.384 1341.16 261.54 1331.58 159.004 1288.2C-47.1406 1200.99 -66.3073 1047.36 -209.79 869.995C-351.093 695.32 -486.611 615.752 -531.379 394.228C-553.892 282.828 -588.539 203.232 -540.722 102.476C-450.961 -86.661 -248.208 -80.5789 -82.2838 -233.853C87.9477 -391.131 38.6888 -542.728 263.093 -623.752C423.398 -681.633 556.88 -667.549 698.525 -564.936Z" stroke="#FEFEFE" stroke-width="1.5" stroke-miterlimit="10"/>
<path d="M1146 857C1006.69 999.311 759.783 802.554 582.064 907.104C423.102 1000.62 468.825 1213.14 284.01 1247.38C184.646 1265.79 120.607 1249.41 32.6562 1211.54C-151.557 1132.23 -269.825 1060.83 -384.725 913.463C-491.515 776.501 -502.343 653.549 -520.174 485.314C-529.373 398.515 -513.719 342.559 -465.099 263.307C-367.35 103.973 -230.255 97.716 -59.5908 -6.32428C108.481 -108.784 28.07 -112.311 227.501 -135C327.791 -146.41 401.251 -118.573 485.001 -74.4997C642.214 8.2343 841.606 28.1128 959.501 169.5C1080.48 314.56 1157.75 274.988 1206.12 458.783C1240.68 590.078 1250.72 750.03 1146 857Z" stroke="#FEFEFE" stroke-width="1.5" stroke-miterlimit="10"/>
<path d="M-356.841 1349.39C-409.145 1151.13 -157.664 1061.68 -153.249 854.076C-149.301 668.387 -371.654 580.892 -298.239 408.842C-258.768 316.341 -207.237 273.345 -122.258 223.342C55.7296 118.613 188.925 63.428 390.393 55.7175C577.64 48.5513 697.397 112.012 862.976 196.367C948.404 239.889 991.207 285.687 1036.8 372.29C1128.46 546.404 1056.31 662.766 1055.44 864.267C1054.58 1062.71 1102.51 1192.48 1010.11 1369.74C963.652 1458.89 943.061 1532.85 854.735 1575.75C688.933 1656.28 554.607 1539.89 356.96 1553.57C154.167 1567.64 103.587 1699.25 -93.727 1630.84C-234.68 1581.97 -317.525 1498.41 -356.841 1349.39Z" stroke="#FEFEFE" stroke-width="1.5" stroke-miterlimit="10"/>
<path d="M-396.831 1386.36C-449.126 1188.08 -197.634 1098.6 -193.208 890.976C-189.25 705.263 -411.603 617.769 -338.177 445.692C-298.7 353.176 -247.166 310.171 -162.182 260.158C15.8151 155.405 149.016 100.205 350.489 92.483C537.741 85.3057 657.498 148.768 823.075 233.125C908.502 276.649 951.305 322.45 996.892 409.062C1088.54 583.194 1016.39 699.575 1015.51 901.103C1014.63 1099.57 1062.56 1229.35 970.153 1406.65C923.685 1495.81 903.089 1569.79 814.759 1612.69C648.949 1693.24 514.627 1576.84 316.974 1590.54C114.176 1604.61 63.5878 1736.25 -133.727 1667.84C-274.681 1618.97 -357.523 1535.4 -396.831 1386.36Z" stroke="#FEFEFE" stroke-width="1.5" stroke-miterlimit="10"/>
<path d="M-422.831 1412.36C-475.126 1214.08 -223.634 1124.6 -219.208 916.976C-215.25 731.263 -437.603 643.769 -364.177 471.692C-324.7 379.176 -273.166 336.171 -188.182 286.158C-10.1849 181.405 123.016 126.205 324.489 118.483C511.741 111.306 631.498 174.768 797.075 259.125C882.502 302.649 925.305 348.45 970.892 435.062C1062.54 609.194 990.392 725.575 989.506 927.103C988.634 1125.57 1036.56 1255.35 944.153 1432.65C897.685 1521.81 877.089 1595.79 788.759 1638.69C622.949 1719.24 488.627 1602.84 290.974 1616.54C88.1763 1630.61 37.5878 1762.25 -159.727 1693.84C-300.681 1644.97 -383.523 1561.4 -422.831 1412.36Z" stroke="#FEFEFE" stroke-width="1.5" stroke-miterlimit="10"/>
<path d="M-672.341 1363.81C-634.109 1162.35 -368.604 1189.95 -275.159 1004.48C-191.576 838.596 -354.54 663.841 -214.142 540.187C-138.659 473.706 45.7614 217.521 144.001 209C349.762 191.153 669.357 289.169 854.501 369.001C1026.58 443.197 812.312 701.197 925.391 848.659C983.732 924.74 1002.63 984.514 1006.45 1082.32C1014.14 1278.94 898.888 1352.89 811.265 1534.37C724.973 1713.1 712.305 1850.87 552.533 1971.05C472.187 2031.49 421.729 2089.38 323.532 2090.05C139.198 2091.3 68.1286 1928.38 -116.143 1855.6C-305.218 1780.93 -407.584 1877.92 -556.176 1731.18C-662.324 1626.35 -701.079 1515.25 -672.341 1363.81Z" stroke="#FEFEFE" stroke-width="1.5" stroke-miterlimit="10"/>
</g>
</g>
<defs>
<radialGradient id="paint0_radial" cx="0" cy="0" r="1" gradientUnits="userSpaceOnUse" gradientTransform="translate(720 390) rotate(90) scale(390 720)">
<stop stop-color="#F6EBD6"/>
<stop offset="0.776042" stop-color="#F1E4CD"/>
<stop offset="1" stop-color="#F1E4CC"/>
</radialGradient>
</defs>
</svg>
