<svg width="98" height="32" viewBox="0 0 98 32" fill="none" xmlns="http://www.w3.org/2000/svg">
<path d="M0 31.6145V11.5387H5.04497V13.0415C5.73236 12.4249 6.4934 11.9625 7.32809 11.6543C8.16278 11.3203 9.07112 11.1533 10.0531 11.1533C11.2806 11.1533 12.3853 11.4231 13.3673 11.9625C14.3739 12.4763 15.1963 13.2084 15.8346 14.1589C16.5956 13.1827 17.5162 12.4378 18.5964 11.924C19.6766 11.4102 20.8673 11.1533 22.1684 11.1533C24.3042 11.1533 26.0595 11.8983 27.4343 13.3883C28.8091 14.8782 29.4965 16.792 29.4965 19.1297V31.6145H24.4515V19.9004C24.4515 18.6416 24.1201 17.6269 23.4572 16.8562C22.819 16.0856 21.9474 15.7002 20.8427 15.7002C20.0817 15.7002 19.382 15.8801 18.7437 16.2397C18.13 16.5737 17.6021 17.0618 17.1602 17.704C17.1848 17.9352 17.2093 18.1664 17.2339 18.3976C17.2584 18.6288 17.2707 18.8728 17.2707 19.1297V31.6145H12.2258V19.9004C12.2258 18.6416 11.8943 17.6269 11.2315 16.8562C10.5932 16.0856 9.72168 15.7002 8.61695 15.7002C7.85591 15.7002 7.18079 15.8544 6.5916 16.1626C6.0024 16.4709 5.48686 16.9205 5.04497 17.5113V31.6145H0Z" fill="#FEFEFE"/>
<path d="M32.4885 21.5958C32.4885 20.1316 32.7462 18.7701 33.2618 17.5113C33.8019 16.2269 34.5261 15.1222 35.4344 14.1975C36.3673 13.247 37.4598 12.502 38.7118 11.9625C39.9639 11.4231 41.3018 11.1533 42.7257 11.1533C44.1496 11.1533 45.4875 11.4231 46.7396 11.9625C47.9916 12.502 49.0718 13.247 49.9801 14.1975C50.913 15.1222 51.6372 16.2269 52.1528 17.5113C52.6929 18.7701 52.9629 20.1316 52.9629 21.5958C52.9629 23.0601 52.6929 24.4345 52.1528 25.7189C51.6372 26.9777 50.913 28.0694 49.9801 28.9942C49.0718 29.919 47.9916 30.6512 46.7396 31.1906C45.4875 31.7301 44.1496 31.9998 42.7257 31.9998C41.3018 31.9998 39.9639 31.7301 38.7118 31.1906C37.4598 30.6512 36.3673 29.919 35.4344 28.9942C34.5261 28.0694 33.8019 26.9777 33.2618 25.7189C32.7462 24.4345 32.4885 23.0601 32.4885 21.5958ZM42.7257 27.4144C44.1987 27.4144 45.4507 26.8492 46.4818 25.7189C47.5129 24.5886 48.0284 23.2142 48.0284 21.5958C48.0284 19.9518 47.5129 18.5646 46.4818 17.4342C45.4507 16.3039 44.1987 15.7388 42.7257 15.7388C41.2527 15.7388 40.0007 16.3039 38.9696 17.4342C37.9385 18.5646 37.423 19.9518 37.423 21.5958C37.423 23.2142 37.9385 24.5886 38.9696 25.7189C40.0007 26.8492 41.2527 27.4144 42.7257 27.4144Z" fill="#FEFEFE"/>
<path d="M56.064 31.6145V11.5387H61.1089V13.0415C61.7963 12.4249 62.5574 11.9625 63.392 11.6543C64.2267 11.3203 65.1351 11.1533 66.1171 11.1533C67.3445 11.1533 68.4493 11.4231 69.4313 11.9625C70.4378 12.4763 71.2602 13.2084 71.8985 14.1589C72.6595 13.1827 73.5802 12.4378 74.6603 11.924C75.7405 11.4102 76.9312 11.1533 78.2323 11.1533C80.3682 11.1533 82.1235 11.8983 83.4982 13.3883C84.873 14.8782 85.5604 16.792 85.5604 19.1297V31.6145H80.5155V19.9004C80.5155 18.6416 80.184 17.6269 79.5212 16.8562C78.8829 16.0856 78.0114 15.7002 76.9067 15.7002C76.1456 15.7002 75.4459 15.8801 74.8076 16.2397C74.1939 16.5737 73.6661 17.0618 73.2242 17.704C73.2487 17.9352 73.2733 18.1664 73.2978 18.3976C73.3224 18.6288 73.3347 18.8728 73.3347 19.1297V31.6145H68.2897V19.9004C68.2897 18.6416 67.9583 17.6269 67.2954 16.8562C66.6572 16.0856 65.7856 15.7002 64.6809 15.7002C63.9199 15.7002 63.2447 15.8544 62.6556 16.1626C62.0664 16.4709 61.5508 16.9205 61.1089 17.5113V31.6145H56.064Z" fill="#FEFEFE"/>
<path d="M94.4812 11.5387V31.6145H89.4362V11.5387H94.4812Z" fill="#FEFEFE"/>
<path d="M93.2738 7.80762H89.543V3.90365C89.543 1.74768 91.2135 -0.000321865 93.2738 -0.000321865H97.0047V3.90365C97.0047 6.05961 95.3342 7.80762 93.2738 7.80762Z" fill="#FEFEFE"/>
</svg>
